<?xml version="1.0" encoding="utf-8"?>
<!-- Generator: Adobe Illustrator 14.0.0, SVG Export Plug-In . SVG Version: 6.00 Build 43363)  -->
<!DOCTYPE svg PUBLIC "-//W3C//DTD SVG 1.1//EN" "http://www.w3.org/Graphics/SVG/1.1/DTD/svg11.dtd">
<svg version="1.1" id="レイヤー_1" xmlns="http://www.w3.org/2000/svg" xmlns:xlink="http://www.w3.org/1999/xlink" x="0px"
	 y="0px" width="1423.69px" height="1099.58px" viewBox="0 0 1423.69 1099.58" enable-background="new 0 0 1423.69 1099.58"
	 xml:space="preserve">
<path fill="#91D0D6" d="M1083.685,388.931c-31.491-43.464-74.871-79.204-125.98-103.578
	c-5.886-67.746-39.022-128.721-89.539-173.603c-27.314-24.282-59.72-43.932-95.682-57.527
	C736.52,40.647,696.996,33.14,655.685,33.14c-48.824,0-95.145,10.489-136.018,29.094c-34.154,15.534-64.451,36.746-89.699,62.195
	c-22.148-6.449-45.805-9.969-70.297-9.969c-31.531,0-61.747,5.784-89.181,16.272c-41.154,15.736-76.083,41.96-100.794,74.969
	c-24.69,33.009-39.143,72.989-39.125,115.752c0,22.146,3.938,43.483,11.092,63.508c-32.6,21.104-60.036,48.223-80.353,79.635
	c-24.653,38.075-38.786,82.493-38.765,129.691c0,35.488,7.951,69.435,22.405,100.253c21.649,46.266,57.752,85.523,103.238,113.293
	c45.484,27.767,100.473,44.02,159.417,44.003c36.343,0,71.17-6.215,103.199-17.457c-3.54,98.259-28.788,265.2-28.788,265.2h364.086
	c0,0-25.925-169.131-29.663-246.271c26.68,6.107,54.573,9.375,83.277,9.375c46.736,0,91.428-8.586,131.982-24.082
	c60.912-23.278,112.604-62.089,149.184-110.958c36.538-48.871,57.931-107.96,57.931-171.305
	C1138.812,494.644,1118.535,437.01,1083.685,388.931z M1056.866,654.47c-21.152,45.207-56.578,83.751-101.15,110.941
	c-44.572,27.191-98.087,43.032-155.998,43.051c-25.486,0-50.119-3.072-73.518-8.838c28.238-72.561,106.823-171.185,120.034-187.494
	h65.87V493.719c0-6.177-5.004-11.181-11.18-11.181H776.792c-6.178,0-11.182,5.004-11.182,11.181V612.13h37.135
	c-13.291,17.423-39.376,47.526-56.644,41.029c-23.996-9.035-13.995-108.443-13.995-108.443h-48.01
	c8.009,68.68-23.997,142.782-68.012,122.901c-35.453-16.017-28.083-110.581-23.875-146.766h107.03V327.574
	c0-10.083-8.169-18.251-18.25-18.251H478.368c-10.081,0-18.249,8.168-18.249,18.251v193.278h89.164
	c-6.983,44.468-27.432,150.608-65.241,164.852c-58.375,21.962-94.98-37.915-139.963-120.435h20.154v-91.72
	c0-4.784-3.876-8.66-8.66-8.66H259.42c-4.784,0-8.66,3.876-8.66,8.66v91.72h37.66c21.852,43.743,99.234,167.048,117.613,203.552
	c0.913,1.868,1.729,4.312,2.386,7.24c-30.298,13.774-64.454,21.55-100.813,21.55c-31.152,0-60.693-5.692-87.592-15.966
	c-40.338-15.409-74.769-41.236-99.044-73.692c-24.273-32.489-38.408-71.462-38.427-113.668
	c0.019-37.412,11.132-72.252,30.576-102.337c19.443-30.048,47.234-55.248,80.437-72.918l23.239-12.356l-11.154-22.2
	c-9.662-19.254-15.069-40.482-15.069-63.024c0-21.174,4.731-41.18,13.278-59.448c12.803-27.389,34.315-50.772,61.311-67.244
	c27.038-16.469,59.4-26.058,94.509-26.077c24.116,0,46.879,4.543,67.592,12.734l21.49,8.478l14.295-16.776
	c22.244-26.096,50.813-47.556,83.615-62.465c32.762-14.906,69.699-23.295,109.02-23.295c33.281,0,64.851,6.017,93.638,16.9
	c43.179,16.309,80.156,43.626,106.438,78.056c26.319,34.447,41.985,75.863,42.859,120.728l0.318,17.045l17.156,7.111
	c47.971,19.919,88.685,51.816,117.373,91.418c28.667,39.621,45.308,86.784,45.308,137.718
	C1078.775,591.234,1070.98,624.316,1056.866,654.47z M872.284,544.841c-10.032,0-18.162-8.135-18.162-18.166
	c0-10.028,8.13-18.166,18.162-18.166c10.031,0,18.163,8.138,18.163,18.166C890.447,536.707,882.315,544.841,872.284,544.841z
	 M885.343,563.297v25.354h-16.903v-25.354H885.343z M859.986,563.297v25.354h-16.902v-25.354H859.986z M834.633,588.651h-16.903
	v-25.354h16.903V588.651z M805.434,544.841c-10.031,0-18.163-8.135-18.163-18.166c0-10.028,8.132-18.166,18.163-18.166
	c10.034,0,18.163,8.138,18.163,18.166C823.597,536.707,815.468,544.841,805.434,544.841z M792.375,563.297h16.902v25.354h-16.902
	V563.297z M525.121,411.019c-16.372,0-29.647-13.279-29.647-29.652c0-16.369,13.275-29.653,29.647-29.653
	c16.378,0,29.648,13.284,29.648,29.653C554.769,397.74,541.499,411.019,525.121,411.019z M531.395,441.142v41.387h-27.591v-41.387
	H531.395z M545.189,441.142h27.591v41.387h-27.591V441.142z M634.24,411.019c-16.377,0-29.646-13.279-29.646-29.652
	c0-16.369,13.269-29.653,29.646-29.653c16.374,0,29.647,13.284,29.647,29.653C663.888,397.74,650.614,411.019,634.24,411.019z
	 M655.553,441.142v41.387h-27.591v-41.387H655.553z M614.167,441.142v41.387h-27.591v-41.387H614.167z M281.606,513.148
	c-7.77,0-14.069-6.302-14.069-14.071c0-7.768,6.299-14.072,14.069-14.072c7.772,0,14.069,6.304,14.069,14.072
	C295.675,506.846,289.378,513.148,281.606,513.148z M304.222,527.443v19.64h-13.093v-19.64H304.222z M271.49,527.443h13.093v19.64
	H271.49V527.443z M343.502,547.083h-13.093v-19.64h13.093V547.083z M333.388,513.148c-7.772,0-14.069-6.302-14.069-14.071
	c0-7.768,6.297-14.072,14.069-14.072c7.77,0,14.069,6.304,14.069,14.072C347.457,506.846,341.158,513.148,333.388,513.148z
	 M323.862,527.443v19.64h-13.093v-19.64H323.862z"/>
<rect x="707.51" y="373.702" fill="#91D0D6" width="18.396" height="55.182"/>
<rect x="433.453" y="373.702" fill="#91D0D6" width="18.394" height="55.182"/>
<path fill="#91D0D6" d="M577.379,231.149c-16.086,0-29.126,13.041-29.126,29.122c-0.001,16.086,13.04,29.127,29.126,29.127
	c16.081,0,29.122-13.041,29.122-29.127C606.501,244.19,593.46,231.149,577.379,231.149z"/>
<rect x="368.158" y="495.438" fill="#91D0D6" width="8.729" height="26.187"/>
<rect x="238.106" y="495.438" fill="#91D0D6" width="8.729" height="26.187"/>
<path fill="#91D0D6" d="M306.405,427.792c-7.634,0-13.822,6.189-13.822,13.82c0,7.633,6.188,13.821,13.822,13.821
	c7.631,0,13.82-6.188,13.82-13.821C320.225,433.981,314.036,427.792,306.405,427.792z"/>
<rect x="917.173" y="521.979" fill="#91D0D6" width="11.27" height="33.807"/>
<rect x="749.274" y="521.979" fill="#91D0D6" width="11.269" height="33.807"/>
<path fill="#91D0D6" d="M837.449,434.646c-9.854,0-17.844,7.99-17.844,17.841c-0.001,9.856,7.989,17.845,17.844,17.845
	c9.853,0,17.843-7.989,17.843-17.845C855.292,442.636,847.302,434.646,837.449,434.646z"/>
</svg>
